<mxfile host="app.diagrams.net" agent="Mozilla/5.0 (Macintosh; Intel Mac OS X 10_15_7) AppleWebKit/537.36 (KHTML, like Gecko) Chrome/133.0.0.0 Safari/537.36" version="26.0.16">
  <diagram name="Page-1" id="VFj65QAzPsNUZFpsatWj">
    <mxGraphModel dx="1640" dy="1042" grid="1" gridSize="10" guides="1" tooltips="1" connect="1" arrows="1" fold="1" page="1" pageScale="1" pageWidth="827" pageHeight="1169" math="0" shadow="0">
      <root>
        <mxCell id="0" />
        <mxCell id="1" parent="0" />
        <mxCell id="16hW8aWgDfImmh0Cn97X-3" value="" style="edgeStyle=orthogonalEdgeStyle;rounded=0;orthogonalLoop=1;jettySize=auto;html=1;entryX=0.5;entryY=0;entryDx=0;entryDy=0;" parent="1" target="16hW8aWgDfImmh0Cn97X-77" edge="1">
          <mxGeometry relative="1" as="geometry">
            <mxPoint x="220" y="120" as="sourcePoint" />
            <mxPoint x="220" y="140" as="targetPoint" />
          </mxGeometry>
        </mxCell>
        <mxCell id="16hW8aWgDfImmh0Cn97X-1" value="&lt;font style=&quot;font-size: 14px;&quot;&gt;Start&lt;/font&gt;" style="ellipse;whiteSpace=wrap;html=1;" parent="1" vertex="1">
          <mxGeometry x="160" y="40" width="120" height="80" as="geometry" />
        </mxCell>
        <mxCell id="16hW8aWgDfImmh0Cn97X-71" value="" style="edgeStyle=orthogonalEdgeStyle;rounded=0;orthogonalLoop=1;jettySize=auto;html=1;exitX=0.5;exitY=1;exitDx=0;exitDy=0;exitPerimeter=0;" parent="1" source="16hW8aWgDfImmh0Cn97X-78" target="16hW8aWgDfImmh0Cn97X-70" edge="1">
          <mxGeometry relative="1" as="geometry">
            <mxPoint x="1250.0555555555557" y="85.89" as="sourcePoint" />
          </mxGeometry>
        </mxCell>
        <mxCell id="3p7yJRifDNwi82YsYZCq-16" value="" style="edgeStyle=orthogonalEdgeStyle;rounded=0;orthogonalLoop=1;jettySize=auto;html=1;" edge="1" parent="1" source="16hW8aWgDfImmh0Cn97X-51" target="mmGjmohOtIg-gZhR8A6J-3">
          <mxGeometry relative="1" as="geometry" />
        </mxCell>
        <mxCell id="16hW8aWgDfImmh0Cn97X-51" value="Ask for which difficulty&lt;div&gt;player wants:&amp;nbsp;&lt;/div&gt;" style="shape=parallelogram;html=1;strokeWidth=2;perimeter=parallelogramPerimeter;whiteSpace=wrap;rounded=1;arcSize=12;size=0.23;" parent="1" vertex="1">
          <mxGeometry x="1157.5" y="165.89" width="185" height="60" as="geometry" />
        </mxCell>
        <mxCell id="16hW8aWgDfImmh0Cn97X-52" value="" style="edgeStyle=orthogonalEdgeStyle;rounded=0;orthogonalLoop=1;jettySize=auto;html=1;" parent="1" source="16hW8aWgDfImmh0Cn97X-54" target="16hW8aWgDfImmh0Cn97X-56" edge="1">
          <mxGeometry relative="1" as="geometry" />
        </mxCell>
        <mxCell id="MnmEK7-N3imYMPAZ-l2H-11" value="Yes" style="edgeLabel;html=1;align=center;verticalAlign=middle;resizable=0;points=[];" parent="16hW8aWgDfImmh0Cn97X-52" vertex="1" connectable="0">
          <mxGeometry x="-0.4828" y="4" relative="1" as="geometry">
            <mxPoint as="offset" />
          </mxGeometry>
        </mxCell>
        <mxCell id="3p7yJRifDNwi82YsYZCq-14" value="No" style="edgeStyle=orthogonalEdgeStyle;rounded=0;orthogonalLoop=1;jettySize=auto;html=1;entryX=0.5;entryY=1;entryDx=0;entryDy=0;" edge="1" parent="1" source="16hW8aWgDfImmh0Cn97X-54" target="mmGjmohOtIg-gZhR8A6J-6">
          <mxGeometry relative="1" as="geometry" />
        </mxCell>
        <mxCell id="16hW8aWgDfImmh0Cn97X-54" value="&lt;font style=&quot;font-size: 14px;&quot;&gt;is input in:&lt;/font&gt;&lt;div&gt;&lt;font style=&quot;font-size: 14px;&quot;&gt;[&#39;&#39;hard&quot;,&quot;h&quot;]&lt;/font&gt;&lt;/div&gt;" style="rhombus;whiteSpace=wrap;html=1;strokeWidth=2;rounded=1;arcSize=12;" parent="1" vertex="1">
          <mxGeometry x="1420" y="432.81" width="130" height="119.11" as="geometry" />
        </mxCell>
        <mxCell id="3p7yJRifDNwi82YsYZCq-4" style="edgeStyle=orthogonalEdgeStyle;rounded=0;orthogonalLoop=1;jettySize=auto;html=1;entryX=1;entryY=0.5;entryDx=0;entryDy=0;" edge="1" parent="1" source="16hW8aWgDfImmh0Cn97X-56" target="16hW8aWgDfImmh0Cn97X-66">
          <mxGeometry relative="1" as="geometry">
            <Array as="points">
              <mxPoint x="1485" y="741" />
            </Array>
          </mxGeometry>
        </mxCell>
        <mxCell id="16hW8aWgDfImmh0Cn97X-56" value="&lt;span style=&quot;font-size: 14px;&quot;&gt;Set target list to the&amp;nbsp;&lt;/span&gt;&lt;br style=&quot;font-size: 14px;&quot;&gt;&lt;span style=&quot;font-size: 14px;&quot;&gt;Hard word list&lt;/span&gt;" style="whiteSpace=wrap;html=1;strokeWidth=2;rounded=1;arcSize=12;" parent="1" vertex="1">
          <mxGeometry x="1402.5" y="601.36" width="165" height="60" as="geometry" />
        </mxCell>
        <mxCell id="3p7yJRifDNwi82YsYZCq-2" value="" style="edgeStyle=orthogonalEdgeStyle;rounded=0;orthogonalLoop=1;jettySize=auto;html=1;" edge="1" parent="1" source="16hW8aWgDfImmh0Cn97X-58" target="16hW8aWgDfImmh0Cn97X-66">
          <mxGeometry relative="1" as="geometry" />
        </mxCell>
        <mxCell id="16hW8aWgDfImmh0Cn97X-58" value="&lt;font style=&quot;font-size: 14px;&quot;&gt;Set target list to the&amp;nbsp;&lt;br&gt;Medium word list&lt;/font&gt;" style="whiteSpace=wrap;html=1;strokeWidth=2;rounded=1;arcSize=12;" parent="1" vertex="1">
          <mxGeometry x="1190" y="597.75" width="180" height="62.25" as="geometry" />
        </mxCell>
        <mxCell id="3p7yJRifDNwi82YsYZCq-3" style="edgeStyle=orthogonalEdgeStyle;rounded=0;orthogonalLoop=1;jettySize=auto;html=1;entryX=0;entryY=0.5;entryDx=0;entryDy=0;" edge="1" parent="1" source="16hW8aWgDfImmh0Cn97X-60" target="16hW8aWgDfImmh0Cn97X-66">
          <mxGeometry relative="1" as="geometry">
            <Array as="points">
              <mxPoint x="1060" y="741" />
            </Array>
          </mxGeometry>
        </mxCell>
        <mxCell id="16hW8aWgDfImmh0Cn97X-60" value="&lt;span style=&quot;font-size: 14px;&quot;&gt;Set target list to the&amp;nbsp;&lt;/span&gt;&lt;br style=&quot;font-size: 14px;&quot;&gt;&lt;span style=&quot;font-size: 14px;&quot;&gt;Easy word list&lt;/span&gt;" style="whiteSpace=wrap;html=1;strokeWidth=2;rounded=1;arcSize=12;" parent="1" vertex="1">
          <mxGeometry x="980" y="597.75" width="180" height="62.25" as="geometry" />
        </mxCell>
        <mxCell id="16hW8aWgDfImmh0Cn97X-62" value="Yes" style="edgeStyle=orthogonalEdgeStyle;rounded=0;orthogonalLoop=1;jettySize=auto;html=1;" parent="1" source="16hW8aWgDfImmh0Cn97X-63" target="16hW8aWgDfImmh0Cn97X-58" edge="1">
          <mxGeometry relative="1" as="geometry" />
        </mxCell>
        <mxCell id="3p7yJRifDNwi82YsYZCq-12" value="" style="edgeStyle=orthogonalEdgeStyle;rounded=0;orthogonalLoop=1;jettySize=auto;html=1;" edge="1" parent="1" source="16hW8aWgDfImmh0Cn97X-63" target="16hW8aWgDfImmh0Cn97X-54">
          <mxGeometry relative="1" as="geometry" />
        </mxCell>
        <mxCell id="3p7yJRifDNwi82YsYZCq-13" value="No" style="edgeLabel;html=1;align=center;verticalAlign=middle;resizable=0;points=[];" vertex="1" connectable="0" parent="3p7yJRifDNwi82YsYZCq-12">
          <mxGeometry x="0.1561" y="-4" relative="1" as="geometry">
            <mxPoint as="offset" />
          </mxGeometry>
        </mxCell>
        <mxCell id="16hW8aWgDfImmh0Cn97X-63" value="&lt;font style=&quot;font-size: 14px;&quot;&gt;is input in:&lt;/font&gt;&lt;div&gt;&lt;font style=&quot;font-size: 14px;&quot;&gt;[&#39;&#39;medium&quot;,&quot;m&quot;]&lt;/font&gt;&lt;/div&gt;" style="rhombus;whiteSpace=wrap;html=1;strokeWidth=2;rounded=1;arcSize=12;direction=south;" parent="1" vertex="1">
          <mxGeometry x="1215.25" y="432.11" width="129.5" height="120.5" as="geometry" />
        </mxCell>
        <mxCell id="16hW8aWgDfImmh0Cn97X-64" value="Yes" style="edgeStyle=orthogonalEdgeStyle;rounded=0;orthogonalLoop=1;jettySize=auto;html=1;" parent="1" source="16hW8aWgDfImmh0Cn97X-65" target="16hW8aWgDfImmh0Cn97X-60" edge="1">
          <mxGeometry relative="1" as="geometry" />
        </mxCell>
        <mxCell id="3p7yJRifDNwi82YsYZCq-11" value="No" style="edgeStyle=orthogonalEdgeStyle;rounded=0;orthogonalLoop=1;jettySize=auto;html=1;" edge="1" parent="1" source="16hW8aWgDfImmh0Cn97X-65" target="16hW8aWgDfImmh0Cn97X-63">
          <mxGeometry relative="1" as="geometry" />
        </mxCell>
        <mxCell id="16hW8aWgDfImmh0Cn97X-65" value="&lt;font style=&quot;font-size: 14px;&quot;&gt;is input in:&lt;/font&gt;&lt;div&gt;&lt;font style=&quot;font-size: 14px;&quot;&gt;[&#39;&#39;easy&quot;,&quot;e&quot;]&lt;/font&gt;&lt;/div&gt;" style="rhombus;whiteSpace=wrap;html=1;strokeWidth=2;rounded=1;arcSize=12;direction=south;" parent="1" vertex="1">
          <mxGeometry x="1005" y="432.11" width="130" height="116.89" as="geometry" />
        </mxCell>
        <mxCell id="3p7yJRifDNwi82YsYZCq-5" value="" style="edgeStyle=orthogonalEdgeStyle;rounded=0;orthogonalLoop=1;jettySize=auto;html=1;" edge="1" parent="1" source="16hW8aWgDfImmh0Cn97X-66" target="16hW8aWgDfImmh0Cn97X-75">
          <mxGeometry relative="1" as="geometry" />
        </mxCell>
        <mxCell id="16hW8aWgDfImmh0Cn97X-66" value="&lt;font style=&quot;font-size: 14px;&quot;&gt;Set the target word as a random element of the target list&lt;/font&gt;" style="rounded=1;whiteSpace=wrap;html=1;absoluteArcSize=1;arcSize=14;strokeWidth=2;" parent="1" vertex="1">
          <mxGeometry x="1190" y="710" width="180" height="62" as="geometry" />
        </mxCell>
        <mxCell id="16hW8aWgDfImmh0Cn97X-73" value="" style="edgeStyle=orthogonalEdgeStyle;rounded=0;orthogonalLoop=1;jettySize=auto;html=1;entryX=0.5;entryY=0;entryDx=0;entryDy=0;" parent="1" source="16hW8aWgDfImmh0Cn97X-70" target="16hW8aWgDfImmh0Cn97X-51" edge="1">
          <mxGeometry relative="1" as="geometry" />
        </mxCell>
        <mxCell id="16hW8aWgDfImmh0Cn97X-70" value="{Define difficulty:(maxPoints,word list)} dictionary" style="rounded=1;whiteSpace=wrap;html=1;absoluteArcSize=1;arcSize=14;strokeWidth=2;" parent="1" vertex="1">
          <mxGeometry x="1140" y="105.89" width="220" height="40" as="geometry" />
        </mxCell>
        <mxCell id="mmGjmohOtIg-gZhR8A6J-18" value="" style="edgeStyle=orthogonalEdgeStyle;rounded=0;orthogonalLoop=1;jettySize=auto;html=1;" parent="1" source="16hW8aWgDfImmh0Cn97X-75" target="16hW8aWgDfImmh0Cn97X-80" edge="1">
          <mxGeometry relative="1" as="geometry" />
        </mxCell>
        <mxCell id="16hW8aWgDfImmh0Cn97X-75" value="&lt;font style=&quot;font-size: 14px;&quot;&gt;Set totalLives to the first term of the corresponding tuple to the difficulty&lt;/font&gt;" style="rounded=1;whiteSpace=wrap;html=1;absoluteArcSize=1;arcSize=14;strokeWidth=2;" parent="1" vertex="1">
          <mxGeometry x="1171" y="830" width="218" height="70" as="geometry" />
        </mxCell>
        <mxCell id="MnmEK7-N3imYMPAZ-l2H-70" value="" style="edgeStyle=orthogonalEdgeStyle;rounded=0;orthogonalLoop=1;jettySize=auto;html=1;" parent="1" source="16hW8aWgDfImmh0Cn97X-77" target="MnmEK7-N3imYMPAZ-l2H-69" edge="1">
          <mxGeometry relative="1" as="geometry" />
        </mxCell>
        <mxCell id="16hW8aWgDfImmh0Cn97X-77" value="Choose difficulty" style="shape=process;whiteSpace=wrap;html=1;backgroundOutline=1;" parent="1" vertex="1">
          <mxGeometry x="160" y="140" width="120" height="60" as="geometry" />
        </mxCell>
        <mxCell id="16hW8aWgDfImmh0Cn97X-78" value="Choose difficulty" style="strokeWidth=2;html=1;shape=mxgraph.flowchart.start_2;whiteSpace=wrap;" parent="1" vertex="1">
          <mxGeometry x="1200" y="28.39" width="100" height="57.5" as="geometry" />
        </mxCell>
        <mxCell id="16hW8aWgDfImmh0Cn97X-80" value="Return (totalLives,targetWord)" style="strokeWidth=2;html=1;shape=mxgraph.flowchart.start_2;whiteSpace=wrap;" parent="1" vertex="1">
          <mxGeometry x="1200" y="942.5" width="160" height="60" as="geometry" />
        </mxCell>
        <mxCell id="MnmEK7-N3imYMPAZ-l2H-24" value="" style="edgeStyle=orthogonalEdgeStyle;rounded=0;orthogonalLoop=1;jettySize=auto;html=1;" parent="1" source="MnmEK7-N3imYMPAZ-l2H-10" target="MnmEK7-N3imYMPAZ-l2H-23" edge="1">
          <mxGeometry relative="1" as="geometry" />
        </mxCell>
        <mxCell id="MnmEK7-N3imYMPAZ-l2H-160" value="Yes" style="edgeLabel;html=1;align=center;verticalAlign=middle;resizable=0;points=[];" parent="MnmEK7-N3imYMPAZ-l2H-24" vertex="1" connectable="0">
          <mxGeometry x="0.13" y="-1" relative="1" as="geometry">
            <mxPoint as="offset" />
          </mxGeometry>
        </mxCell>
        <mxCell id="MnmEK7-N3imYMPAZ-l2H-34" value="" style="edgeStyle=orthogonalEdgeStyle;rounded=0;orthogonalLoop=1;jettySize=auto;html=1;" parent="1" source="MnmEK7-N3imYMPAZ-l2H-10" target="MnmEK7-N3imYMPAZ-l2H-33" edge="1">
          <mxGeometry relative="1" as="geometry" />
        </mxCell>
        <mxCell id="MnmEK7-N3imYMPAZ-l2H-38" value="No" style="edgeLabel;html=1;align=center;verticalAlign=middle;resizable=0;points=[];" parent="MnmEK7-N3imYMPAZ-l2H-34" vertex="1" connectable="0">
          <mxGeometry x="-0.4902" y="3" relative="1" as="geometry">
            <mxPoint as="offset" />
          </mxGeometry>
        </mxCell>
        <mxCell id="MnmEK7-N3imYMPAZ-l2H-10" value="Is &lt;i&gt;guess &lt;/i&gt;length more than 1?" style="strokeWidth=2;html=1;shape=mxgraph.flowchart.decision;whiteSpace=wrap;" parent="1" vertex="1">
          <mxGeometry x="2678" y="100.88999999999999" width="156" height="80" as="geometry" />
        </mxCell>
        <mxCell id="MnmEK7-N3imYMPAZ-l2H-28" value="No" style="edgeStyle=orthogonalEdgeStyle;rounded=0;orthogonalLoop=1;jettySize=auto;html=1;entryX=0.5;entryY=0;entryDx=0;entryDy=0;" parent="1" source="MnmEK7-N3imYMPAZ-l2H-23" target="MnmEK7-N3imYMPAZ-l2H-62" edge="1">
          <mxGeometry x="-0.6997" relative="1" as="geometry">
            <mxPoint x="2933.5" y="55.889999999999986" as="targetPoint" />
            <mxPoint as="offset" />
          </mxGeometry>
        </mxCell>
        <mxCell id="MnmEK7-N3imYMPAZ-l2H-65" style="edgeStyle=orthogonalEdgeStyle;rounded=0;orthogonalLoop=1;jettySize=auto;html=1;entryX=1;entryY=0.5;entryDx=0;entryDy=0;exitX=1;exitY=0.5;exitDx=0;exitDy=0;" parent="1" source="MnmEK7-N3imYMPAZ-l2H-67" target="MnmEK7-N3imYMPAZ-l2H-55" edge="1">
          <mxGeometry relative="1" as="geometry">
            <Array as="points">
              <mxPoint x="3162" y="88" />
              <mxPoint x="3273" y="88" />
              <mxPoint x="3273" y="710" />
              <mxPoint x="3100" y="710" />
            </Array>
          </mxGeometry>
        </mxCell>
        <mxCell id="MnmEK7-N3imYMPAZ-l2H-66" value="Yes" style="edgeLabel;html=1;align=center;verticalAlign=middle;resizable=0;points=[];" parent="MnmEK7-N3imYMPAZ-l2H-65" vertex="1" connectable="0">
          <mxGeometry x="-0.6501" relative="1" as="geometry">
            <mxPoint as="offset" />
          </mxGeometry>
        </mxCell>
        <mxCell id="MnmEK7-N3imYMPAZ-l2H-68" style="edgeStyle=orthogonalEdgeStyle;rounded=0;orthogonalLoop=1;jettySize=auto;html=1;entryX=0;entryY=0.5;entryDx=0;entryDy=0;" parent="1" source="MnmEK7-N3imYMPAZ-l2H-23" target="MnmEK7-N3imYMPAZ-l2H-67" edge="1">
          <mxGeometry relative="1" as="geometry" />
        </mxCell>
        <mxCell id="MnmEK7-N3imYMPAZ-l2H-23" value="Is &lt;i&gt;guess &lt;/i&gt;== &lt;i&gt;targetWord&lt;/i&gt;" style="strokeWidth=2;html=1;shape=mxgraph.flowchart.decision;whiteSpace=wrap;" parent="1" vertex="1">
          <mxGeometry x="2877.5" y="100.88999999999999" width="112" height="80" as="geometry" />
        </mxCell>
        <mxCell id="MnmEK7-N3imYMPAZ-l2H-60" value="" style="edgeStyle=orthogonalEdgeStyle;rounded=0;orthogonalLoop=1;jettySize=auto;html=1;" parent="1" edge="1">
          <mxGeometry relative="1" as="geometry">
            <mxPoint x="2241.047619047619" y="125.5" as="sourcePoint" />
          </mxGeometry>
        </mxCell>
        <mxCell id="3p7yJRifDNwi82YsYZCq-20" style="edgeStyle=orthogonalEdgeStyle;rounded=0;orthogonalLoop=1;jettySize=auto;html=1;entryX=0;entryY=0.5;entryDx=0;entryDy=0;" edge="1" parent="1" source="MnmEK7-N3imYMPAZ-l2H-33" target="MnmEK7-N3imYMPAZ-l2H-62">
          <mxGeometry relative="1" as="geometry" />
        </mxCell>
        <mxCell id="3p7yJRifDNwi82YsYZCq-21" value="Yes" style="edgeLabel;html=1;align=center;verticalAlign=middle;resizable=0;points=[];" vertex="1" connectable="0" parent="3p7yJRifDNwi82YsYZCq-20">
          <mxGeometry x="-0.3871" y="-5" relative="1" as="geometry">
            <mxPoint x="1" as="offset" />
          </mxGeometry>
        </mxCell>
        <mxCell id="3p7yJRifDNwi82YsYZCq-22" style="edgeStyle=orthogonalEdgeStyle;rounded=0;orthogonalLoop=1;jettySize=auto;html=1;entryX=0.676;entryY=-0.025;entryDx=0;entryDy=0;entryPerimeter=0;" edge="1" parent="1" source="MnmEK7-N3imYMPAZ-l2H-33" target="MnmEK7-N3imYMPAZ-l2H-45">
          <mxGeometry relative="1" as="geometry" />
        </mxCell>
        <mxCell id="MnmEK7-N3imYMPAZ-l2H-33" value="Is &lt;i&gt;guess &lt;/i&gt;in &lt;i&gt;guessed&lt;/i&gt;&lt;div&gt;&lt;i&gt;&lt;/i&gt;set?&lt;/div&gt;" style="rhombus;whiteSpace=wrap;html=1;strokeWidth=2;" parent="1" vertex="1">
          <mxGeometry x="2682" y="218" width="148" height="100" as="geometry" />
        </mxCell>
        <mxCell id="MnmEK7-N3imYMPAZ-l2H-54" style="edgeStyle=orthogonalEdgeStyle;rounded=0;orthogonalLoop=1;jettySize=auto;html=1;entryX=1;entryY=0.5;entryDx=0;entryDy=0;" parent="1" source="MnmEK7-N3imYMPAZ-l2H-39" target="MnmEK7-N3imYMPAZ-l2H-52" edge="1">
          <mxGeometry relative="1" as="geometry">
            <Array as="points">
              <mxPoint x="2976.5" y="435.89" />
            </Array>
          </mxGeometry>
        </mxCell>
        <mxCell id="MnmEK7-N3imYMPAZ-l2H-161" value="Yes" style="edgeLabel;html=1;align=center;verticalAlign=middle;resizable=0;points=[];" parent="MnmEK7-N3imYMPAZ-l2H-54" vertex="1" connectable="0">
          <mxGeometry x="-0.237" relative="1" as="geometry">
            <mxPoint as="offset" />
          </mxGeometry>
        </mxCell>
        <mxCell id="MnmEK7-N3imYMPAZ-l2H-63" style="edgeStyle=orthogonalEdgeStyle;rounded=0;orthogonalLoop=1;jettySize=auto;html=1;entryX=0;entryY=0.5;entryDx=0;entryDy=0;" parent="1" source="MnmEK7-N3imYMPAZ-l2H-39" target="MnmEK7-N3imYMPAZ-l2H-62" edge="1">
          <mxGeometry relative="1" as="geometry" />
        </mxCell>
        <mxCell id="MnmEK7-N3imYMPAZ-l2H-64" value="No" style="edgeLabel;html=1;align=center;verticalAlign=middle;resizable=0;points=[];" parent="MnmEK7-N3imYMPAZ-l2H-63" vertex="1" connectable="0">
          <mxGeometry x="-0.1674" y="6" relative="1" as="geometry">
            <mxPoint y="1" as="offset" />
          </mxGeometry>
        </mxCell>
        <mxCell id="3p7yJRifDNwi82YsYZCq-18" value="" style="edgeStyle=orthogonalEdgeStyle;rounded=0;orthogonalLoop=1;jettySize=auto;html=1;" edge="1" parent="1" source="MnmEK7-N3imYMPAZ-l2H-39" target="MnmEK7-N3imYMPAZ-l2H-45">
          <mxGeometry relative="1" as="geometry" />
        </mxCell>
        <mxCell id="3p7yJRifDNwi82YsYZCq-19" value="No" style="edgeLabel;html=1;align=center;verticalAlign=middle;resizable=0;points=[];" vertex="1" connectable="0" parent="3p7yJRifDNwi82YsYZCq-18">
          <mxGeometry x="-0.08" y="2" relative="1" as="geometry">
            <mxPoint as="offset" />
          </mxGeometry>
        </mxCell>
        <mxCell id="MnmEK7-N3imYMPAZ-l2H-39" value="Is the guessed letter&lt;div&gt;in the target word?&lt;/div&gt;" style="rhombus;whiteSpace=wrap;html=1;strokeWidth=2;" parent="1" vertex="1">
          <mxGeometry x="2902" y="384" width="148" height="100" as="geometry" />
        </mxCell>
        <mxCell id="MnmEK7-N3imYMPAZ-l2H-45" value="Add &lt;i&gt;guess &lt;/i&gt;into the &lt;i&gt;guessed &lt;/i&gt;set" style="rounded=1;whiteSpace=wrap;html=1;absoluteArcSize=1;arcSize=14;strokeWidth=2;" parent="1" vertex="1">
          <mxGeometry x="2620" y="432.11" width="200" height="30" as="geometry" />
        </mxCell>
        <mxCell id="MnmEK7-N3imYMPAZ-l2H-56" value="" style="edgeStyle=orthogonalEdgeStyle;rounded=0;orthogonalLoop=1;jettySize=auto;html=1;" parent="1" source="MnmEK7-N3imYMPAZ-l2H-52" target="MnmEK7-N3imYMPAZ-l2H-55" edge="1">
          <mxGeometry relative="1" as="geometry" />
        </mxCell>
        <mxCell id="MnmEK7-N3imYMPAZ-l2H-52" value="&lt;font style=&quot;font-size: 15px;&quot;&gt;Display:&amp;nbsp;&lt;/font&gt;&lt;div&gt;&lt;font style=&quot;font-size: 15px;&quot;&gt;Correct Guess&lt;/font&gt;&lt;/div&gt;" style="shape=parallelogram;html=1;strokeWidth=2;perimeter=parallelogramPerimeter;whiteSpace=wrap;rounded=1;arcSize=12;size=0.23;" parent="1" vertex="1">
          <mxGeometry x="2701.75" y="529" width="143.75" height="76.5" as="geometry" />
        </mxCell>
        <mxCell id="MnmEK7-N3imYMPAZ-l2H-55" value="return" style="ellipse;whiteSpace=wrap;html=1;strokeWidth=2;rounded=1;arcSize=12;" parent="1" vertex="1">
          <mxGeometry x="2735" y="680" width="80" height="57.5" as="geometry" />
        </mxCell>
        <mxCell id="MnmEK7-N3imYMPAZ-l2H-59" value="" style="edgeStyle=orthogonalEdgeStyle;rounded=0;orthogonalLoop=1;jettySize=auto;html=1;" parent="1" source="MnmEK7-N3imYMPAZ-l2H-57" target="MnmEK7-N3imYMPAZ-l2H-10" edge="1">
          <mxGeometry relative="1" as="geometry" />
        </mxCell>
        <mxCell id="MnmEK7-N3imYMPAZ-l2H-57" value="&lt;font style=&quot;font-size: 14px;&quot;&gt;checkGuess(guess)&lt;/font&gt;" style="ellipse;whiteSpace=wrap;html=1;" parent="1" vertex="1">
          <mxGeometry x="2683.5" y="22.39" width="145" height="45.5" as="geometry" />
        </mxCell>
        <mxCell id="MnmEK7-N3imYMPAZ-l2H-159" style="edgeStyle=orthogonalEdgeStyle;rounded=0;orthogonalLoop=1;jettySize=auto;html=1;entryX=1;entryY=0.5;entryDx=0;entryDy=0;" parent="1" source="MnmEK7-N3imYMPAZ-l2H-61" target="MnmEK7-N3imYMPAZ-l2H-55" edge="1">
          <mxGeometry relative="1" as="geometry">
            <Array as="points">
              <mxPoint x="3172" y="709" />
            </Array>
          </mxGeometry>
        </mxCell>
        <mxCell id="MnmEK7-N3imYMPAZ-l2H-61" value="&lt;font style=&quot;font-size: 15px;&quot;&gt;Deduct&lt;/font&gt;&lt;div&gt;&lt;font style=&quot;font-size: 15px;&quot;&gt;&amp;nbsp;10 points&lt;/font&gt;&lt;/div&gt;" style="rounded=1;whiteSpace=wrap;html=1;absoluteArcSize=1;arcSize=14;strokeWidth=2;" parent="1" vertex="1">
          <mxGeometry x="3108.75" y="534" width="127.5" height="50.5" as="geometry" />
        </mxCell>
        <mxCell id="MnmEK7-N3imYMPAZ-l2H-158" value="" style="edgeStyle=orthogonalEdgeStyle;rounded=0;orthogonalLoop=1;jettySize=auto;html=1;" parent="1" source="MnmEK7-N3imYMPAZ-l2H-62" target="MnmEK7-N3imYMPAZ-l2H-61" edge="1">
          <mxGeometry relative="1" as="geometry" />
        </mxCell>
        <mxCell id="MnmEK7-N3imYMPAZ-l2H-62" value="Display: Incorrect Guess" style="shape=parallelogram;html=1;strokeWidth=2;perimeter=parallelogramPerimeter;whiteSpace=wrap;rounded=1;arcSize=12;size=0.23;" parent="1" vertex="1">
          <mxGeometry x="3107.5" y="310.89" width="130" height="70" as="geometry" />
        </mxCell>
        <mxCell id="MnmEK7-N3imYMPAZ-l2H-67" value="Add &lt;i&gt;guess &lt;/i&gt;into the &lt;i&gt;guessed &lt;/i&gt;set" style="rounded=1;whiteSpace=wrap;html=1;absoluteArcSize=1;arcSize=14;strokeWidth=2;" parent="1" vertex="1">
          <mxGeometry x="2962.5" y="67.88999999999999" width="200" height="30" as="geometry" />
        </mxCell>
        <mxCell id="MnmEK7-N3imYMPAZ-l2H-72" value="" style="edgeStyle=orthogonalEdgeStyle;rounded=0;orthogonalLoop=1;jettySize=auto;html=1;" parent="1" source="MnmEK7-N3imYMPAZ-l2H-69" target="MnmEK7-N3imYMPAZ-l2H-71" edge="1">
          <mxGeometry relative="1" as="geometry" />
        </mxCell>
        <mxCell id="MnmEK7-N3imYMPAZ-l2H-69" value="ask the user: &quot;What is your guess?" style="shape=parallelogram;html=1;strokeWidth=2;perimeter=parallelogramPerimeter;whiteSpace=wrap;rounded=1;arcSize=11;size=0.15000000000000002;" parent="1" vertex="1">
          <mxGeometry x="170" y="235" width="100" height="83" as="geometry" />
        </mxCell>
        <mxCell id="MnmEK7-N3imYMPAZ-l2H-103" value="" style="edgeStyle=orthogonalEdgeStyle;rounded=0;orthogonalLoop=1;jettySize=auto;html=1;" parent="1" source="MnmEK7-N3imYMPAZ-l2H-71" target="MnmEK7-N3imYMPAZ-l2H-102" edge="1">
          <mxGeometry relative="1" as="geometry" />
        </mxCell>
        <mxCell id="MnmEK7-N3imYMPAZ-l2H-71" value="checkGuess(guess)" style="shape=process;whiteSpace=wrap;html=1;backgroundOutline=1;" parent="1" vertex="1">
          <mxGeometry x="329" y="246.5" width="170" height="60" as="geometry" />
        </mxCell>
        <mxCell id="MnmEK7-N3imYMPAZ-l2H-76" value="" style="edgeStyle=orthogonalEdgeStyle;rounded=0;orthogonalLoop=1;jettySize=auto;html=1;entryX=0.5;entryY=0;entryDx=0;entryDy=0;entryPerimeter=0;" parent="1" source="MnmEK7-N3imYMPAZ-l2H-74" target="MnmEK7-N3imYMPAZ-l2H-77" edge="1">
          <mxGeometry relative="1" as="geometry">
            <mxPoint x="1812.5" y="130" as="targetPoint" />
          </mxGeometry>
        </mxCell>
        <mxCell id="MnmEK7-N3imYMPAZ-l2H-74" value="checkForEnd" style="strokeWidth=2;html=1;shape=mxgraph.flowchart.start_2;whiteSpace=wrap;" parent="1" vertex="1">
          <mxGeometry x="1762.5" y="10" width="100" height="60" as="geometry" />
        </mxCell>
        <mxCell id="MnmEK7-N3imYMPAZ-l2H-80" value="" style="edgeStyle=orthogonalEdgeStyle;rounded=0;orthogonalLoop=1;jettySize=auto;html=1;" parent="1" source="MnmEK7-N3imYMPAZ-l2H-77" target="MnmEK7-N3imYMPAZ-l2H-79" edge="1">
          <mxGeometry relative="1" as="geometry" />
        </mxCell>
        <mxCell id="MnmEK7-N3imYMPAZ-l2H-89" value="Yes" style="edgeLabel;html=1;align=center;verticalAlign=middle;resizable=0;points=[];" parent="MnmEK7-N3imYMPAZ-l2H-80" vertex="1" connectable="0">
          <mxGeometry x="-0.5111" y="1" relative="1" as="geometry">
            <mxPoint as="offset" />
          </mxGeometry>
        </mxCell>
        <mxCell id="MnmEK7-N3imYMPAZ-l2H-82" value="" style="edgeStyle=orthogonalEdgeStyle;rounded=0;orthogonalLoop=1;jettySize=auto;html=1;entryX=0.5;entryY=0;entryDx=0;entryDy=0;" parent="1" source="MnmEK7-N3imYMPAZ-l2H-77" target="MnmEK7-N3imYMPAZ-l2H-83" edge="1">
          <mxGeometry relative="1" as="geometry">
            <mxPoint x="1785" y="280" as="targetPoint" />
          </mxGeometry>
        </mxCell>
        <mxCell id="MnmEK7-N3imYMPAZ-l2H-90" value="No" style="edgeLabel;html=1;align=center;verticalAlign=middle;resizable=0;points=[];" parent="MnmEK7-N3imYMPAZ-l2H-82" vertex="1" connectable="0">
          <mxGeometry x="-0.6211" relative="1" as="geometry">
            <mxPoint as="offset" />
          </mxGeometry>
        </mxCell>
        <mxCell id="MnmEK7-N3imYMPAZ-l2H-77" value="Is the remaining&lt;div&gt;points less than or&lt;/div&gt;&lt;div&gt;&amp;nbsp;equal to 0?&lt;/div&gt;" style="strokeWidth=2;html=1;shape=mxgraph.flowchart.decision;whiteSpace=wrap;" parent="1" vertex="1">
          <mxGeometry x="1737.5" y="90" width="150" height="100" as="geometry" />
        </mxCell>
        <mxCell id="MnmEK7-N3imYMPAZ-l2H-79" value="Return (True, &quot;L&quot;" style="strokeWidth=2;html=1;shape=mxgraph.flowchart.start_2;whiteSpace=wrap;" parent="1" vertex="1">
          <mxGeometry x="2060" y="484" width="100" height="60" as="geometry" />
        </mxCell>
        <mxCell id="MnmEK7-N3imYMPAZ-l2H-85" value="" style="edgeStyle=orthogonalEdgeStyle;rounded=0;orthogonalLoop=1;jettySize=auto;html=1;" parent="1" source="MnmEK7-N3imYMPAZ-l2H-83" target="MnmEK7-N3imYMPAZ-l2H-84" edge="1">
          <mxGeometry relative="1" as="geometry" />
        </mxCell>
        <mxCell id="MnmEK7-N3imYMPAZ-l2H-83" value="sort the word alphabetically, and sort the guess list alphabetically" style="rounded=1;whiteSpace=wrap;html=1;absoluteArcSize=1;arcSize=14;strokeWidth=2;" parent="1" vertex="1">
          <mxGeometry x="1670" y="222.5" width="285" height="70" as="geometry" />
        </mxCell>
        <mxCell id="MnmEK7-N3imYMPAZ-l2H-88" value="" style="edgeStyle=orthogonalEdgeStyle;rounded=0;orthogonalLoop=1;jettySize=auto;html=1;exitX=1;exitY=0.5;exitDx=0;exitDy=0;" parent="1" source="MnmEK7-N3imYMPAZ-l2H-84" target="MnmEK7-N3imYMPAZ-l2H-87" edge="1">
          <mxGeometry relative="1" as="geometry" />
        </mxCell>
        <mxCell id="MnmEK7-N3imYMPAZ-l2H-91" value="Yes" style="edgeLabel;html=1;align=center;verticalAlign=middle;resizable=0;points=[];" parent="MnmEK7-N3imYMPAZ-l2H-88" vertex="1" connectable="0">
          <mxGeometry x="-0.2997" y="2" relative="1" as="geometry">
            <mxPoint as="offset" />
          </mxGeometry>
        </mxCell>
        <mxCell id="MnmEK7-N3imYMPAZ-l2H-93" value="" style="edgeStyle=orthogonalEdgeStyle;rounded=0;orthogonalLoop=1;jettySize=auto;html=1;" parent="1" source="MnmEK7-N3imYMPAZ-l2H-84" target="MnmEK7-N3imYMPAZ-l2H-92" edge="1">
          <mxGeometry relative="1" as="geometry" />
        </mxCell>
        <mxCell id="MnmEK7-N3imYMPAZ-l2H-106" value="No" style="edgeLabel;html=1;align=center;verticalAlign=middle;resizable=0;points=[];" parent="MnmEK7-N3imYMPAZ-l2H-93" vertex="1" connectable="0">
          <mxGeometry x="-0.2986" relative="1" as="geometry">
            <mxPoint y="-1" as="offset" />
          </mxGeometry>
        </mxCell>
        <mxCell id="MnmEK7-N3imYMPAZ-l2H-84" value="&lt;div style=&quot;&quot;&gt;&lt;span style=&quot;background-color: transparent; color: light-dark(rgb(0, 0, 0), rgb(255, 255, 255));&quot;&gt;Is the sorted version of the word contained in the guess list?&lt;/span&gt;&lt;/div&gt;&lt;div style=&quot;&quot;&gt;(i.e. has the player guessed all of the required letters)&lt;/div&gt;" style="rhombus;whiteSpace=wrap;html=1;rounded=1;arcSize=0;strokeWidth=2;align=center;" parent="1" vertex="1">
          <mxGeometry x="1695" y="307" width="230" height="132.5" as="geometry" />
        </mxCell>
        <mxCell id="MnmEK7-N3imYMPAZ-l2H-87" value="Return (True, &quot;W&quot;" style="strokeWidth=2;html=1;shape=mxgraph.flowchart.start_2;whiteSpace=wrap;" parent="1" vertex="1">
          <mxGeometry x="1925" y="484" width="100" height="60" as="geometry" />
        </mxCell>
        <mxCell id="MnmEK7-N3imYMPAZ-l2H-92" value="Return (False, &quot;-&quot;)" style="ellipse;whiteSpace=wrap;html=1;rounded=1;arcSize=0;strokeWidth=2;" parent="1" vertex="1">
          <mxGeometry x="1752.5" y="480.87" width="120" height="66.25" as="geometry" />
        </mxCell>
        <mxCell id="MnmEK7-N3imYMPAZ-l2H-99" value="" style="strokeWidth=2;html=1;shape=mxgraph.flowchart.annotation_2;align=left;labelPosition=right;pointerEvents=1;rotation=-180;" parent="1" vertex="1">
          <mxGeometry x="2170" y="468.5" width="50" height="80.5" as="geometry" />
        </mxCell>
        <mxCell id="MnmEK7-N3imYMPAZ-l2H-100" value="The tuples are in the following format:&lt;br&gt;The first term defines if the game is over:&lt;div&gt;&amp;nbsp;True == Game has ended&amp;nbsp;False == Game is still going&lt;br&gt;the second term tells how the game ended:&amp;nbsp;&lt;br&gt;&quot;W&quot; == Win, &quot;L&quot; == Loss, &quot;-&quot; == has not ended&lt;/div&gt;" style="text;html=1;align=center;verticalAlign=middle;whiteSpace=wrap;rounded=0;" parent="1" vertex="1">
          <mxGeometry x="2215" y="499" width="255" height="30" as="geometry" />
        </mxCell>
        <mxCell id="MnmEK7-N3imYMPAZ-l2H-105" value="" style="edgeStyle=orthogonalEdgeStyle;rounded=0;orthogonalLoop=1;jettySize=auto;html=1;" parent="1" source="MnmEK7-N3imYMPAZ-l2H-102" target="MnmEK7-N3imYMPAZ-l2H-104" edge="1">
          <mxGeometry relative="1" as="geometry" />
        </mxCell>
        <mxCell id="MnmEK7-N3imYMPAZ-l2H-102" value="checkForEnd" style="shape=process;whiteSpace=wrap;html=1;backgroundOutline=1;" parent="1" vertex="1">
          <mxGeometry x="329" y="356" width="171" height="60" as="geometry" />
        </mxCell>
        <mxCell id="MnmEK7-N3imYMPAZ-l2H-108" value="" style="edgeStyle=orthogonalEdgeStyle;rounded=0;orthogonalLoop=1;jettySize=auto;html=1;" parent="1" source="MnmEK7-N3imYMPAZ-l2H-104" target="MnmEK7-N3imYMPAZ-l2H-107" edge="1">
          <mxGeometry relative="1" as="geometry" />
        </mxCell>
        <mxCell id="MnmEK7-N3imYMPAZ-l2H-104" value="Store tuple in a variable" style="rounded=1;whiteSpace=wrap;html=1;absoluteArcSize=1;arcSize=14;strokeWidth=2;" parent="1" vertex="1">
          <mxGeometry x="314" y="450.5" width="200" height="50" as="geometry" />
        </mxCell>
        <mxCell id="MnmEK7-N3imYMPAZ-l2H-110" value="" style="edgeStyle=orthogonalEdgeStyle;rounded=0;orthogonalLoop=1;jettySize=auto;html=1;" parent="1" source="MnmEK7-N3imYMPAZ-l2H-107" target="MnmEK7-N3imYMPAZ-l2H-109" edge="1">
          <mxGeometry relative="1" as="geometry" />
        </mxCell>
        <mxCell id="MnmEK7-N3imYMPAZ-l2H-117" value="Yes" style="edgeLabel;html=1;align=center;verticalAlign=middle;resizable=0;points=[];" parent="MnmEK7-N3imYMPAZ-l2H-110" vertex="1" connectable="0">
          <mxGeometry x="-0.4996" relative="1" as="geometry">
            <mxPoint as="offset" />
          </mxGeometry>
        </mxCell>
        <mxCell id="MnmEK7-N3imYMPAZ-l2H-125" style="edgeStyle=orthogonalEdgeStyle;rounded=0;orthogonalLoop=1;jettySize=auto;html=1;entryX=0;entryY=0.25;entryDx=0;entryDy=0;exitX=1;exitY=0.5;exitDx=0;exitDy=0;" parent="1" source="MnmEK7-N3imYMPAZ-l2H-154" target="MnmEK7-N3imYMPAZ-l2H-69" edge="1">
          <mxGeometry relative="1" as="geometry">
            <Array as="points">
              <mxPoint x="570" y="680" />
              <mxPoint x="570" y="880" />
              <mxPoint x="30" y="880" />
              <mxPoint x="30" y="260" />
            </Array>
          </mxGeometry>
        </mxCell>
        <mxCell id="MnmEK7-N3imYMPAZ-l2H-127" value="No" style="edgeLabel;html=1;align=center;verticalAlign=middle;resizable=0;points=[];" parent="MnmEK7-N3imYMPAZ-l2H-125" vertex="1" connectable="0">
          <mxGeometry x="-0.4146" y="3" relative="1" as="geometry">
            <mxPoint x="-117" y="-3" as="offset" />
          </mxGeometry>
        </mxCell>
        <mxCell id="MnmEK7-N3imYMPAZ-l2H-155" value="" style="edgeStyle=orthogonalEdgeStyle;rounded=0;orthogonalLoop=1;jettySize=auto;html=1;" parent="1" source="MnmEK7-N3imYMPAZ-l2H-107" target="MnmEK7-N3imYMPAZ-l2H-154" edge="1">
          <mxGeometry relative="1" as="geometry" />
        </mxCell>
        <mxCell id="MnmEK7-N3imYMPAZ-l2H-156" value="No" style="edgeLabel;html=1;align=center;verticalAlign=middle;resizable=0;points=[];" parent="MnmEK7-N3imYMPAZ-l2H-155" vertex="1" connectable="0">
          <mxGeometry x="0.3416" relative="1" as="geometry">
            <mxPoint as="offset" />
          </mxGeometry>
        </mxCell>
        <mxCell id="MnmEK7-N3imYMPAZ-l2H-107" value="if first term of tuple is True" style="strokeWidth=2;html=1;shape=mxgraph.flowchart.decision;whiteSpace=wrap;" parent="1" vertex="1">
          <mxGeometry x="321" y="522.5" width="186" height="100" as="geometry" />
        </mxCell>
        <mxCell id="MnmEK7-N3imYMPAZ-l2H-112" value="" style="edgeStyle=orthogonalEdgeStyle;rounded=0;orthogonalLoop=1;jettySize=auto;html=1;" parent="1" source="MnmEK7-N3imYMPAZ-l2H-109" target="MnmEK7-N3imYMPAZ-l2H-111" edge="1">
          <mxGeometry relative="1" as="geometry" />
        </mxCell>
        <mxCell id="MnmEK7-N3imYMPAZ-l2H-118" value="No" style="edgeLabel;html=1;align=center;verticalAlign=middle;resizable=0;points=[];" parent="MnmEK7-N3imYMPAZ-l2H-112" vertex="1" connectable="0">
          <mxGeometry x="0.3462" y="-2" relative="1" as="geometry">
            <mxPoint as="offset" />
          </mxGeometry>
        </mxCell>
        <mxCell id="MnmEK7-N3imYMPAZ-l2H-116" value="" style="edgeStyle=orthogonalEdgeStyle;rounded=0;orthogonalLoop=1;jettySize=auto;html=1;" parent="1" source="MnmEK7-N3imYMPAZ-l2H-109" target="MnmEK7-N3imYMPAZ-l2H-114" edge="1">
          <mxGeometry relative="1" as="geometry" />
        </mxCell>
        <mxCell id="MnmEK7-N3imYMPAZ-l2H-122" value="Yes" style="edgeLabel;html=1;align=center;verticalAlign=middle;resizable=0;points=[];" parent="MnmEK7-N3imYMPAZ-l2H-116" vertex="1" connectable="0">
          <mxGeometry x="0.1806" y="1" relative="1" as="geometry">
            <mxPoint as="offset" />
          </mxGeometry>
        </mxCell>
        <mxCell id="MnmEK7-N3imYMPAZ-l2H-109" value="Is the second term &quot;W&quot;?" style="strokeWidth=2;html=1;shape=mxgraph.flowchart.decision;whiteSpace=wrap;" parent="1" vertex="1">
          <mxGeometry x="190" y="522.5" width="100" height="100" as="geometry" />
        </mxCell>
        <mxCell id="MnmEK7-N3imYMPAZ-l2H-115" value="" style="edgeStyle=orthogonalEdgeStyle;rounded=0;orthogonalLoop=1;jettySize=auto;html=1;" parent="1" source="MnmEK7-N3imYMPAZ-l2H-111" target="MnmEK7-N3imYMPAZ-l2H-113" edge="1">
          <mxGeometry relative="1" as="geometry" />
        </mxCell>
        <mxCell id="MnmEK7-N3imYMPAZ-l2H-120" value="Yes" style="edgeLabel;html=1;align=center;verticalAlign=middle;resizable=0;points=[];" parent="MnmEK7-N3imYMPAZ-l2H-115" vertex="1" connectable="0">
          <mxGeometry x="0.1289" relative="1" as="geometry">
            <mxPoint as="offset" />
          </mxGeometry>
        </mxCell>
        <mxCell id="MnmEK7-N3imYMPAZ-l2H-121" style="edgeStyle=orthogonalEdgeStyle;rounded=0;orthogonalLoop=1;jettySize=auto;html=1;entryX=0;entryY=0.5;entryDx=0;entryDy=0;" parent="1" source="MnmEK7-N3imYMPAZ-l2H-111" target="MnmEK7-N3imYMPAZ-l2H-69" edge="1">
          <mxGeometry relative="1" as="geometry">
            <Array as="points">
              <mxPoint x="110" y="277" />
            </Array>
          </mxGeometry>
        </mxCell>
        <mxCell id="MnmEK7-N3imYMPAZ-l2H-124" value="No" style="edgeLabel;html=1;align=center;verticalAlign=middle;resizable=0;points=[];" parent="MnmEK7-N3imYMPAZ-l2H-121" vertex="1" connectable="0">
          <mxGeometry x="-0.3417" relative="1" as="geometry">
            <mxPoint as="offset" />
          </mxGeometry>
        </mxCell>
        <mxCell id="MnmEK7-N3imYMPAZ-l2H-111" value="Is the second term &quot;L&quot;?" style="strokeWidth=2;html=1;shape=mxgraph.flowchart.decision;whiteSpace=wrap;" parent="1" vertex="1">
          <mxGeometry x="60" y="522.5" width="100" height="100" as="geometry" />
        </mxCell>
        <mxCell id="mmGjmohOtIg-gZhR8A6J-28" value="" style="edgeStyle=orthogonalEdgeStyle;rounded=0;orthogonalLoop=1;jettySize=auto;html=1;" parent="1" source="MnmEK7-N3imYMPAZ-l2H-113" target="mmGjmohOtIg-gZhR8A6J-27" edge="1">
          <mxGeometry relative="1" as="geometry" />
        </mxCell>
        <mxCell id="MnmEK7-N3imYMPAZ-l2H-113" value="Display&amp;nbsp;&lt;div&gt;&quot;You lost&quot;&lt;/div&gt;" style="shape=parallelogram;html=1;strokeWidth=2;perimeter=parallelogramPerimeter;whiteSpace=wrap;rounded=1;arcSize=12;size=0.23;" parent="1" vertex="1">
          <mxGeometry x="60" y="650" width="100" height="60" as="geometry" />
        </mxCell>
        <mxCell id="mmGjmohOtIg-gZhR8A6J-29" style="edgeStyle=orthogonalEdgeStyle;rounded=0;orthogonalLoop=1;jettySize=auto;html=1;entryX=0.5;entryY=0;entryDx=0;entryDy=0;" parent="1" source="MnmEK7-N3imYMPAZ-l2H-114" target="mmGjmohOtIg-gZhR8A6J-27" edge="1">
          <mxGeometry relative="1" as="geometry" />
        </mxCell>
        <mxCell id="MnmEK7-N3imYMPAZ-l2H-114" value="Display&lt;div&gt;&quot;You Won&quot;&lt;/div&gt;" style="shape=parallelogram;html=1;strokeWidth=2;perimeter=parallelogramPerimeter;whiteSpace=wrap;rounded=1;arcSize=12;size=0.23;" parent="1" vertex="1">
          <mxGeometry x="190" y="650" width="100" height="60" as="geometry" />
        </mxCell>
        <mxCell id="MnmEK7-N3imYMPAZ-l2H-129" value="" style="edgeStyle=orthogonalEdgeStyle;rounded=0;orthogonalLoop=1;jettySize=auto;html=1;" parent="1" source="MnmEK7-N3imYMPAZ-l2H-123" target="MnmEK7-N3imYMPAZ-l2H-128" edge="1">
          <mxGeometry relative="1" as="geometry" />
        </mxCell>
        <mxCell id="MnmEK7-N3imYMPAZ-l2H-123" value="renderWord" style="strokeWidth=2;html=1;shape=mxgraph.flowchart.start_2;whiteSpace=wrap;" parent="1" vertex="1">
          <mxGeometry x="1763" y="580" width="100" height="60" as="geometry" />
        </mxCell>
        <mxCell id="MnmEK7-N3imYMPAZ-l2H-131" value="" style="edgeStyle=orthogonalEdgeStyle;rounded=0;orthogonalLoop=1;jettySize=auto;html=1;" parent="1" source="MnmEK7-N3imYMPAZ-l2H-128" target="MnmEK7-N3imYMPAZ-l2H-130" edge="1">
          <mxGeometry relative="1" as="geometry" />
        </mxCell>
        <mxCell id="MnmEK7-N3imYMPAZ-l2H-128" value="Create empty string called &lt;i&gt;display&lt;/i&gt;" style="rounded=1;whiteSpace=wrap;html=1;absoluteArcSize=1;arcSize=14;strokeWidth=2;" parent="1" vertex="1">
          <mxGeometry x="1713" y="667.75" width="200" height="42.25" as="geometry" />
        </mxCell>
        <mxCell id="MnmEK7-N3imYMPAZ-l2H-133" value="" style="edgeStyle=orthogonalEdgeStyle;rounded=0;orthogonalLoop=1;jettySize=auto;html=1;" parent="1" source="MnmEK7-N3imYMPAZ-l2H-130" target="MnmEK7-N3imYMPAZ-l2H-132" edge="1">
          <mxGeometry relative="1" as="geometry" />
        </mxCell>
        <mxCell id="MnmEK7-N3imYMPAZ-l2H-130" value="check i&lt;font style=&quot;font-size: 8px;&quot;&gt;th &lt;/font&gt;&lt;font style=&quot;font-size: 12px;&quot;&gt;character in &lt;i&gt;targetWord&lt;/i&gt;&lt;/font&gt;" style="whiteSpace=wrap;html=1;rounded=1;arcSize=14;strokeWidth=2;" parent="1" vertex="1">
          <mxGeometry x="1703.75" y="740" width="217.5" height="41.13" as="geometry" />
        </mxCell>
        <mxCell id="MnmEK7-N3imYMPAZ-l2H-139" value="" style="edgeStyle=orthogonalEdgeStyle;rounded=0;orthogonalLoop=1;jettySize=auto;html=1;" parent="1" source="MnmEK7-N3imYMPAZ-l2H-132" target="MnmEK7-N3imYMPAZ-l2H-138" edge="1">
          <mxGeometry relative="1" as="geometry" />
        </mxCell>
        <mxCell id="MnmEK7-N3imYMPAZ-l2H-143" value="Yes" style="edgeLabel;html=1;align=center;verticalAlign=middle;resizable=0;points=[];" parent="MnmEK7-N3imYMPAZ-l2H-139" vertex="1" connectable="0">
          <mxGeometry x="-0.6552" y="1" relative="1" as="geometry">
            <mxPoint y="1" as="offset" />
          </mxGeometry>
        </mxCell>
        <mxCell id="MnmEK7-N3imYMPAZ-l2H-140" style="edgeStyle=orthogonalEdgeStyle;rounded=0;orthogonalLoop=1;jettySize=auto;html=1;entryX=1;entryY=0.5;entryDx=0;entryDy=0;" parent="1" source="MnmEK7-N3imYMPAZ-l2H-132" target="MnmEK7-N3imYMPAZ-l2H-141" edge="1">
          <mxGeometry relative="1" as="geometry">
            <mxPoint x="2100" y="1040" as="targetPoint" />
            <Array as="points">
              <mxPoint x="2090" y="860" />
              <mxPoint x="2090" y="1049" />
              <mxPoint x="2058" y="1049" />
            </Array>
          </mxGeometry>
        </mxCell>
        <mxCell id="MnmEK7-N3imYMPAZ-l2H-142" value="No" style="edgeLabel;html=1;align=center;verticalAlign=middle;resizable=0;points=[];" parent="MnmEK7-N3imYMPAZ-l2H-140" vertex="1" connectable="0">
          <mxGeometry x="-0.0815" y="2" relative="1" as="geometry">
            <mxPoint as="offset" />
          </mxGeometry>
        </mxCell>
        <mxCell id="MnmEK7-N3imYMPAZ-l2H-132" value="Is charactar in the guessed charactars" style="rhombus;whiteSpace=wrap;html=1;rounded=1;arcSize=14;strokeWidth=2;" parent="1" vertex="1">
          <mxGeometry x="1925" y="820" width="145" height="80" as="geometry" />
        </mxCell>
        <mxCell id="MnmEK7-N3imYMPAZ-l2H-136" style="edgeStyle=orthogonalEdgeStyle;rounded=0;orthogonalLoop=1;jettySize=auto;html=1;entryX=0;entryY=0.5;entryDx=0;entryDy=0;" parent="1" source="MnmEK7-N3imYMPAZ-l2H-134" target="MnmEK7-N3imYMPAZ-l2H-130" edge="1">
          <mxGeometry relative="1" as="geometry">
            <Array as="points">
              <mxPoint x="1684" y="860" />
              <mxPoint x="1684" y="761" />
            </Array>
          </mxGeometry>
        </mxCell>
        <mxCell id="MnmEK7-N3imYMPAZ-l2H-137" value="No" style="edgeLabel;html=1;align=center;verticalAlign=middle;resizable=0;points=[];" parent="MnmEK7-N3imYMPAZ-l2H-136" vertex="1" connectable="0">
          <mxGeometry x="0.031" y="2" relative="1" as="geometry">
            <mxPoint as="offset" />
          </mxGeometry>
        </mxCell>
        <mxCell id="MnmEK7-N3imYMPAZ-l2H-149" value="" style="edgeStyle=orthogonalEdgeStyle;rounded=0;orthogonalLoop=1;jettySize=auto;html=1;" parent="1" source="MnmEK7-N3imYMPAZ-l2H-134" target="MnmEK7-N3imYMPAZ-l2H-148" edge="1">
          <mxGeometry relative="1" as="geometry" />
        </mxCell>
        <mxCell id="MnmEK7-N3imYMPAZ-l2H-150" value="Yes" style="edgeLabel;html=1;align=center;verticalAlign=middle;resizable=0;points=[];" parent="MnmEK7-N3imYMPAZ-l2H-149" vertex="1" connectable="0">
          <mxGeometry x="-0.2711" relative="1" as="geometry">
            <mxPoint as="offset" />
          </mxGeometry>
        </mxCell>
        <mxCell id="MnmEK7-N3imYMPAZ-l2H-134" value="have we checked all letters in &lt;i&gt;targetword?&lt;/i&gt;" style="rhombus;whiteSpace=wrap;html=1;rounded=1;arcSize=14;strokeWidth=2;" parent="1" vertex="1">
          <mxGeometry x="1737.5" y="810" width="146.25" height="100" as="geometry" />
        </mxCell>
        <mxCell id="MnmEK7-N3imYMPAZ-l2H-144" style="edgeStyle=orthogonalEdgeStyle;rounded=0;orthogonalLoop=1;jettySize=auto;html=1;entryX=1;entryY=0.5;entryDx=0;entryDy=0;" parent="1" source="MnmEK7-N3imYMPAZ-l2H-138" target="MnmEK7-N3imYMPAZ-l2H-134" edge="1">
          <mxGeometry relative="1" as="geometry" />
        </mxCell>
        <mxCell id="MnmEK7-N3imYMPAZ-l2H-138" value="add f&quot; {charactar} &quot; to the &lt;i&gt;display&lt;/i&gt; string" style="whiteSpace=wrap;html=1;rounded=1;arcSize=14;strokeWidth=2;" parent="1" vertex="1">
          <mxGeometry x="1937.25" y="937.5" width="120" height="60" as="geometry" />
        </mxCell>
        <mxCell id="MnmEK7-N3imYMPAZ-l2H-145" style="edgeStyle=orthogonalEdgeStyle;rounded=0;orthogonalLoop=1;jettySize=auto;html=1;entryX=1;entryY=0.5;entryDx=0;entryDy=0;" parent="1" source="MnmEK7-N3imYMPAZ-l2H-141" target="MnmEK7-N3imYMPAZ-l2H-134" edge="1">
          <mxGeometry relative="1" as="geometry" />
        </mxCell>
        <mxCell id="MnmEK7-N3imYMPAZ-l2H-141" value="add &quot; _ &quot; to the &lt;i&gt;display&lt;/i&gt; string" style="rounded=1;whiteSpace=wrap;html=1;absoluteArcSize=1;arcSize=14;strokeWidth=2;" parent="1" vertex="1">
          <mxGeometry x="1939.75" y="1013.5" width="118" height="70" as="geometry" />
        </mxCell>
        <mxCell id="MnmEK7-N3imYMPAZ-l2H-152" value="" style="edgeStyle=orthogonalEdgeStyle;rounded=0;orthogonalLoop=1;jettySize=auto;html=1;" parent="1" source="MnmEK7-N3imYMPAZ-l2H-148" target="MnmEK7-N3imYMPAZ-l2H-151" edge="1">
          <mxGeometry relative="1" as="geometry" />
        </mxCell>
        <mxCell id="MnmEK7-N3imYMPAZ-l2H-148" value="Add &lt;i&gt;/n&lt;/i&gt; to display string, as well as the &lt;i&gt;guessed &lt;/i&gt;list, like so:&lt;div&gt;&lt;i&gt;display&amp;nbsp;&lt;/i&gt;+= f&quot;/n{&lt;i&gt;guessed}&quot;&lt;/i&gt;&lt;/div&gt;" style="rounded=1;whiteSpace=wrap;html=1;absoluteArcSize=1;arcSize=14;strokeWidth=2;" parent="1" vertex="1">
          <mxGeometry x="1741.5" y="937.5" width="137" height="70" as="geometry" />
        </mxCell>
        <mxCell id="MnmEK7-N3imYMPAZ-l2H-151" value="return &lt;i&gt;display&lt;/i&gt;" style="strokeWidth=2;html=1;shape=mxgraph.flowchart.start_2;whiteSpace=wrap;" parent="1" vertex="1">
          <mxGeometry x="1760" y="1029" width="100" height="60" as="geometry" />
        </mxCell>
        <mxCell id="MnmEK7-N3imYMPAZ-l2H-153" value="" style="endArrow=none;dashed=1;html=1;dashPattern=1 3;strokeWidth=2;rounded=0;" parent="1" edge="1">
          <mxGeometry width="50" height="50" relative="1" as="geometry">
            <mxPoint x="1650" y="568" as="sourcePoint" />
            <mxPoint x="2470" y="568" as="targetPoint" />
          </mxGeometry>
        </mxCell>
        <mxCell id="MnmEK7-N3imYMPAZ-l2H-154" value="renderWord" style="shape=process;whiteSpace=wrap;html=1;backgroundOutline=1;" parent="1" vertex="1">
          <mxGeometry x="354" y="650" width="120" height="60" as="geometry" />
        </mxCell>
        <mxCell id="mmGjmohOtIg-gZhR8A6J-5" value="" style="edgeStyle=orthogonalEdgeStyle;rounded=0;orthogonalLoop=1;jettySize=auto;html=1;" parent="1" source="mmGjmohOtIg-gZhR8A6J-3" target="mmGjmohOtIg-gZhR8A6J-4" edge="1">
          <mxGeometry relative="1" as="geometry" />
        </mxCell>
        <mxCell id="mmGjmohOtIg-gZhR8A6J-3" value="lowercase the response" style="rounded=1;whiteSpace=wrap;html=1;absoluteArcSize=1;arcSize=14;strokeWidth=2;" parent="1" vertex="1">
          <mxGeometry x="1200" y="255.89" width="100" height="40" as="geometry" />
        </mxCell>
        <mxCell id="3p7yJRifDNwi82YsYZCq-9" value="" style="edgeStyle=orthogonalEdgeStyle;rounded=0;orthogonalLoop=1;jettySize=auto;html=1;" edge="1" parent="1" source="mmGjmohOtIg-gZhR8A6J-4" target="16hW8aWgDfImmh0Cn97X-65">
          <mxGeometry relative="1" as="geometry" />
        </mxCell>
        <mxCell id="mmGjmohOtIg-gZhR8A6J-4" value="&lt;font style=&quot;background-color: light-dark(#ffffff, var(--ge-dark-color, #121212));&quot; face=&quot;Helvetica&quot;&gt;is t&lt;span&gt;he input in:&lt;/span&gt;&lt;br&gt;&lt;/font&gt;&lt;div style=&quot;line-height: 18px; white-space: pre;&quot;&gt;&lt;font style=&quot;background-color: light-dark(#ffffff, var(--ge-dark-color, #121212));&quot; face=&quot;Helvetica&quot;&gt;[&quot;e&quot;,&#39;m&#39;,&#39;h&#39;,&#39;easy&#39;,&lt;/font&gt;&lt;/div&gt;&lt;div style=&quot;line-height: 18px; white-space: pre;&quot;&gt;&lt;font style=&quot;background-color: light-dark(#ffffff, var(--ge-dark-color, #121212));&quot; face=&quot;Helvetica&quot;&gt;&#39;medium&#39;,&#39;hard&#39;]&lt;/font&gt;&lt;/div&gt;" style="strokeWidth=2;html=1;shape=mxgraph.flowchart.decision;whiteSpace=wrap;" parent="1" vertex="1">
          <mxGeometry x="995.75" y="305.39" width="148.5" height="100" as="geometry" />
        </mxCell>
        <mxCell id="3p7yJRifDNwi82YsYZCq-17" style="edgeStyle=orthogonalEdgeStyle;rounded=0;orthogonalLoop=1;jettySize=auto;html=1;entryX=1;entryY=0.5;entryDx=0;entryDy=0;" edge="1" parent="1" source="mmGjmohOtIg-gZhR8A6J-6" target="16hW8aWgDfImmh0Cn97X-51">
          <mxGeometry relative="1" as="geometry">
            <Array as="points">
              <mxPoint x="1490" y="196" />
            </Array>
          </mxGeometry>
        </mxCell>
        <mxCell id="mmGjmohOtIg-gZhR8A6J-6" value="Display, invalid input" style="shape=parallelogram;html=1;strokeWidth=2;perimeter=parallelogramPerimeter;whiteSpace=wrap;rounded=1;arcSize=12;size=0.23;" parent="1" vertex="1">
          <mxGeometry x="1394.5" y="305.39" width="181" height="60" as="geometry" />
        </mxCell>
        <mxCell id="mmGjmohOtIg-gZhR8A6J-27" value="END" style="ellipse;whiteSpace=wrap;html=1;strokeWidth=2;rounded=1;arcSize=12;" parent="1" vertex="1">
          <mxGeometry x="130" y="773.5" width="80" height="80" as="geometry" />
        </mxCell>
      </root>
    </mxGraphModel>
  </diagram>
</mxfile>
